<?xml version="1.0" encoding="UTF-8"?>
<svg version="1.1" xmlns="http://www.w3.org/2000/svg" width="146" height="195">
<path d="M0 0 C1.11503906 0.56332031 2.23007813 1.12664063 3.37890625 1.70703125 C4.56238647 2.24589966 4.56238647 2.24589966 5.76977539 2.7956543 C8.74510978 4.51418405 10.41074924 5.86731866 12.37890625 8.70703125 C13.87348351 14.68188266 13.22194922 21.0531611 12.94140625 27.14453125 C12.89621923 28.8468996 12.85516198 30.54938288 12.81835938 32.25195312 C12.71959345 36.40649969 12.56456846 40.55549725 12.37890625 44.70703125 C9.15617418 43.16257752 6.72363294 41.41189951 4.00390625 39.08203125 C-6.8251681 30.3360828 -21.14009711 21.3599618 -35.62109375 22.70703125 C-38.93221748 31.81262151 -38.69196074 41.13030604 -35.01171875 50.09765625 C-31.09420815 57.44849075 -25.56268315 63.03282257 -17.62109375 65.70703125 C-13.64605653 66.83296544 -9.65569343 67.81941932 -5.62109375 68.70703125 C-6.20629182 73.30127279 -8.145059 76.88628169 -10.43359375 80.83203125 C-10.77712891 81.45207031 -11.12066406 82.07210937 -11.47460938 82.7109375 C-13.4324077 86.12698335 -15.14561903 88.76851946 -18.62109375 90.70703125 C-30.71749181 91.98033631 -43.11513842 86.23648143 -53.62109375 80.70703125 C-54.58411731 82.26664487 -55.54130379 83.8298635 -56.49609375 85.39453125 C-57.02976563 86.26464844 -57.5634375 87.13476562 -58.11328125 88.03125 C-61.9839716 94.90022122 -62.38957965 100.89409124 -61.62109375 108.70703125 C-58.92700297 114.99324306 -53.59329033 118.01921146 -47.48828125 120.61328125 C-28.09148221 127.56553897 -7.27535532 126.62059664 12.37890625 121.70703125 C12.37890625 130.61703125 12.37890625 139.52703125 12.37890625 148.70703125 C-13.07599609 158.88899218 -45.10031482 158.51725069 -70.578125 148.15234375 C-79.53585733 143.89770837 -86.59335811 138.13607447 -91.43359375 129.45703125 C-94.6929235 119.164411 -93.77926695 110.07230161 -89.5390625 100.18359375 C-83.14004327 88.2361802 -71.38494953 78.14312425 -59.62109375 71.70703125 C-58.96109375 71.70703125 -58.30109375 71.70703125 -57.62109375 71.70703125 C-57.95109375 70.57265625 -58.28109375 69.43828125 -58.62109375 68.26953125 C-62.520767 52.10973421 -56.76851534 32.81069409 -48.48388672 18.78125 C-34.55501838 -3.13580991 -24.45657008 -8.49228139 0 0 Z " fill="#010101" transform="translate(106.62109375,23.29296875)"/>
</svg>
